<svg height="480pt" viewBox="0 0 480 480" width="480pt" xmlns="http://www.w3.org/2000/svg"><path d="m472 88v224h-464v-224c0-17.671875 14.328125-32 32-32h400c17.671875 0 32 14.328125 32 32zm0 0" fill="#fff"/><path d="m472 88v224h-355.121094c112.601563-53.273438 203.445313-143.667969 257.28125-256h65.839844c17.671875 0 32 14.328125 32 32zm0 0" fill="#fff"/><path d="m384 8v208h-112c-17.519531 0-31.78125 14.082031-32 31.601562v-207.601562c0-17.671875 14.328125-32 32-32zm0 0" fill="#fff"/><path d="m384 50.640625v165.359375h-110.320312c46.632812-47.863281 84.03125-103.921875 110.320312-165.359375zm0 0" fill="#fff"/><path d="m8 344c0 17.671875 14.328125 32 32 32h400c17.671875 0 32-14.328125 32-32v-32h-464zm0 0" fill="#acabb1"/><path d="m208 8h-112v208h112c17.671875 0 32 14.328125 32 32v-208c0-17.671875-14.328125-32-32-32zm0 0" fill="#fff"/><path d="m288 440h-96l8-64h80zm0 0" fill="#898890"/><path d="m160 440v32h160v-32zm0 0" fill="#787680"/><path d="m384 248h32v-208h-32zm0 0" fill="#cd1b1b"/><path d="m272 216c-17.671875 0-32 14.328125-32 32h144v-32zm0 0" fill="#787680"/><path d="m384 216v16h-112c-11.429688-.019531-21.992188 6.085938-27.679688 16h-4.320312c0-17.671875 14.328125-32 32-32zm0 0" fill="#57565c"/><path d="m96 248v-208h-32v208zm0 0" fill="#cd1b1b"/><path d="m208 216h-112v32h144c0-17.671875-14.328125-32-32-32zm0 0" fill="#787680"/><path d="m240 248h-4.320312c-5.6875-9.914062-16.25-16.019531-27.679688-16h-112v-16h112c17.671875 0 32 14.328125 32 32zm0 0" fill="#57565c"/><path d="m282 392h-84l2-16h80zm0 0" fill="#787680"/><path d="m440 48h-16v-8c0-4.417969-3.582031-8-8-8h-24v-24c0-4.417969-3.582031-8-8-8h-112c-12.640625.0351562-24.511719 6.0625-32 16.246094-7.488281-10.183594-19.359375-16.2109378-32-16.246094h-112c-4.417969 0-8 3.582031-8 8v24h-24c-4.417969 0-8 3.582031-8 8v8h-16c-22.082031.027344-39.9726562 17.917969-40 40v256c.0273438 22.082031 17.917969 39.972656 40 40h150.9375l-6 48h-24.9375c-4.417969 0-8 3.582031-8 8v32c0 4.417969 3.582031 8 8 8h160c4.417969 0 8-3.582031 8-8v-32c0-4.417969-3.582031-8-8-8h-24.9375l-6-48h150.9375c22.082031-.027344 39.972656-17.917969 40-40v-256c-.027344-22.082031-17.917969-39.972656-40-40zm-32 0v192h-16v-192zm-158.632812 192c3.402343-9.582031 12.464843-15.988281 22.632812-16h104v16zm22.632812-224h104v192h-104c-8.683594.03125-17.117188 2.914062-24 8.207031v-176.207031c0-13.253906 10.746094-24 24-24zm-168 0h104c13.253906 0 24 10.746094 24 24v176.207031c-6.882812-5.292969-15.316406-8.175781-24-8.207031h-104zm0 208h104c10.167969.011719 19.230469 6.417969 22.632812 16h-126.632812zm-32-176h16v192h-16zm-32 16h16v184c0 4.417969 3.582031 8 8 8h352c4.417969 0 8-3.582031 8-8v-184h16c13.253906 0 24 10.746094 24 24v216h-448v-216c0-13.253906 10.746094-24 24-24zm272 400h-144v-16h144zm-33.0625-32h-77.875l6-48h65.875zm161.0625-64h-400c-13.253906 0-24-10.746094-24-24v-24h448v24c0 13.253906-10.746094 24-24 24zm0 0"/><path d="m429.679688 338.320312c-.75-.742187-1.652344-1.3125-2.640626-1.679687-1.945312-.808594-4.132812-.808594-6.078124 0-.980469.386719-1.875.957031-2.640626 1.679687-.707031.777344-1.273437 1.671876-1.679687 2.640626-1.277344 2.976562-.613281 6.429687 1.679687 8.71875 2.289063 2.292968 5.742188 2.957031 8.71875 1.679687.96875-.40625 1.863282-.972656 2.640626-1.679687 2.289062-2.289063 2.957031-5.742188 1.679687-8.71875-.40625-.96875-.972656-1.863282-1.679687-2.640626zm0 0"/><path d="m280 56h64v16h-64zm0 0"/><path d="m280 104h64v16h-64zm0 0"/><path d="m280 152h64v16h-64zm0 0"/><path d="m136 56h64v16h-64zm0 0"/><path d="m136 104h64v16h-64zm0 0"/><path d="m136 152h64v16h-64zm0 0"/></svg>
